Coordinates
nRows=177
nColumns=2
inDegrees=yes
endheader
time	ankle_angle_r	
3.93725	 19.546509	
3.99974	 19.577026	
4.06224	 19.653320	
4.12474	 19.607544	
4.18723	 19.653320	
4.24973	 19.622803	
4.31222	 19.546509	
4.37472	 19.622803	
4.43722	 19.622803	
4.49971	 19.668579	
4.56221	 19.729614	
4.6247	 19.500732	
4.6872	 19.668579	
4.7497	 19.577026	
4.81219	 19.546509	
4.87469	 19.607544	
4.93718	 19.577026	
4.99968	 19.592285	
5.06218	 19.592285	
5.12467	 19.500732	
5.18717	 19.561768	
5.24966	 19.485474	
5.31216	 19.500732	
5.37466	 19.607544	
5.43715	 19.622803	
5.49965	 19.592285	
5.56214	 19.699097	
5.62464	 19.622803	
5.68714	 19.668579	
5.74963	 19.622803	
5.81213	 19.729614	
5.87462	 19.775391	
5.93712	 19.668579	
5.99962	 19.683838	
6.06211	 19.607544	
6.12461	 19.638062	
6.1871	 19.638062	
6.2496	 19.607544	
6.3121	 19.683838	
6.37459	 19.729614	
6.43709	 19.638062	
6.49958	 19.729614	
6.56208	 19.653320	
6.62458	 19.653320	
6.68707	 19.683838	
6.74957	 19.577026	
6.81206	 19.683838	
6.87456	 19.714355	
6.93706	 19.622803	
6.99955	 19.638062	
7.06205	 19.515991	
7.12454	 19.607544	
7.18704	 19.653320	
7.24954	 19.577026	
7.31203	 19.744873	
7.37453	 19.760132	
7.43702	 19.699097	
7.49952	 19.668579	
7.56202	 19.546509	
7.62451	 19.638062	
7.68701	 19.622803	
7.7495	 19.546509	
7.812	 19.638062	
7.8745	 19.699097	
7.93699	 19.668579	
7.99949	 19.683838	
8.06198	 19.561768	
8.12448	 19.668579	
8.18698	 19.622803	
8.24947	 19.607544	
8.31197	 19.699097	
8.37446	 19.653320	
8.43696	 19.668579	
8.49946	 19.653320	
8.56195	 19.515991	
8.62445	 19.638062	
8.68694	 19.622803	
8.74944	 19.546509	
8.81194	 19.729614	
8.87443	 19.653320	
8.93693	 19.744873	
8.99942	 19.744873	
9.06192	 19.638062	
9.12442	 19.592285	
9.18691	 19.592285	
9.24941	 19.561768	
9.3119	 19.607544	
9.3744	 19.546509	
9.4369	 19.546509	
9.49939	 19.607544	
9.56189	 19.485474	
9.62438	 19.546509	
9.68688	 19.546509	
9.74938	 19.439697	
9.81187	 19.653320	
9.87437	 19.546509	
9.93686	 19.683838	
9.99936	 19.592285	
10.0619	 19.561768	
10.1244	 19.622803	
10.1868	 19.622803	
10.2493	 19.577026	
10.3118	 19.744873	
10.3743	 19.683838	
10.4368	 19.775391	
10.4993	 19.744873	
10.5618	 19.592285	
10.6243	 19.653320	
10.6868	 19.485474	
10.7493	 19.531250	
10.8118	 19.638062	
10.8743	 19.577026	
10.9368	 19.592285	
10.9993	 19.577026	
11.0618	 19.470215	
11.1243	 19.546509	
11.1868	 19.500732	
11.2493	 19.531250	
11.3118	 19.622803	
11.3743	 19.592285	
11.4368	 19.653320	
11.4993	 19.592285	
11.5618	 19.638062	
11.6243	 19.638062	
11.6868	 19.515991	
11.7492	 19.760132	
11.8117	 19.775391	
11.8742	 19.683838	
11.9367	 19.699097	
11.9992	 19.592285	
12.0617	 19.683838	
12.1242	 19.744873	
12.1867	 19.592285	
12.2492	 19.744873	
12.3117	 19.622803	
12.3742	 19.653320	
12.4367	 19.714355	
12.4992	 19.500732	
12.5617	 19.683838	
12.6242	 19.622803	
12.6867	 19.561768	
12.7492	 19.729614	
12.8117	 19.699097	
12.8742	 19.638062	
12.9367	 19.760132	
12.9992	 19.577026	
13.0617	 19.653320	
13.1242	 19.638062	
13.1867	 19.638062	
13.2492	 19.683838	
13.3116	 19.653320	
13.3741	 19.653320	
13.4366	 19.729614	
13.4991	 19.577026	
13.5616	 19.607544	
13.6241	 19.653320	
13.6866	 19.668579	
13.7491	 19.851685	
13.8116	 19.775391	
13.8741	 19.607544	
13.9366	 19.714355	
13.9991	 19.561768	
14.0616	 19.638062	
14.1241	 19.622803	
14.1866	 19.561768	
14.2491	 19.729614	
14.3116	 19.714355	
14.3741	 19.638062	
14.4366	 19.729614	
14.4991	 19.531250	
14.5616	 19.607544	
14.6241	 19.622803	
14.6866	 19.577026	
14.7491	 19.729614	
14.8116	 19.683838	
14.874	 19.683838	
14.9365	 19.760132	
